<svg xmlns="http://www.w3.org/2000/svg" xmlns:xlink="http://www.w3.org/1999/xlink" width="600.896" height="545.07" viewBox="0 0 600.896 545.07">
  <defs>
    <linearGradient id="linear-gradient" x1="0.188" y1="0.311" x2="0.326" y2="1.148" gradientUnits="objectBoundingBox">
      <stop offset="0" stop-color="#b585dd"/>
      <stop offset="1" stop-color="#7c32a2"/>
    </linearGradient>
    <filter id="Fill_4" x="163.1" y="169.237" width="228.8" height="233.2" filterUnits="userSpaceOnUse">
      <feOffset dx="4" dy="12" input="SourceAlpha"/>
      <feGaussianBlur stdDeviation="11" result="blur"/>
      <feFlood flood-color="#8c42c2" flood-opacity="0.333"/>
      <feComposite operator="in" in2="blur"/>
      <feComposite in="SourceGraphic"/>
    </filter>
  </defs>
  <g id="Message_Copy_16" data-name="Message Copy 16" transform="translate(2.907 2.828)">
    <g id="Group_2" data-name="Group 2">
      <path id="Fill_1_Copy" data-name="Fill 1 Copy" d="M364.926,193.6A54.117,54.117,0,0,1,387.2,149.982a196.068,196.068,0,0,0-24.092-59.127,54.668,54.668,0,0,1-47.238-15.11,54.2,54.2,0,0,1-15.039-48.659A198.938,198.938,0,0,0,243.28,1.99a54.6,54.6,0,0,1-45.857,24.927A54.5,54.5,0,0,1,150.488,0,198.14,198.14,0,0,0,92.719,22.527,54.048,54.048,0,0,1,78.977,75.744,54.68,54.68,0,0,1,24.043,88.961,196.251,196.251,0,0,0,0,145.327,54.219,54.219,0,0,1,29.921,193.6,54.219,54.219,0,0,1,0,241.873a196.058,196.058,0,0,0,24.043,56.365,54.634,54.634,0,0,1,54.933,13.217,54.048,54.048,0,0,1,13.742,53.218A198.14,198.14,0,0,0,150.488,387.2a54.508,54.508,0,0,1,92.792-1.99,198.8,198.8,0,0,0,57.551-25.1,54.349,54.349,0,0,1,62.277-63.77A196.38,196.38,0,0,0,387.2,237.218,54.117,54.117,0,0,1,364.926,193.6" transform="translate(210.789 18.907)" fill="url(#linear-gradient)"/>
      <g id="Group">
        <g id="Fill_1" data-name="Fill 1">
          <path id="Fill_1-2" data-name="Fill 1" d="M505.146,269.707a75.543,75.543,0,0,1,30.832-60.766,274.132,274.132,0,0,0-33.349-82.37,75.483,75.483,0,0,1-86.207-88.838A274.485,274.485,0,0,0,336.758,2.772,75.465,75.465,0,0,1,273.282,37.5c-27.779,0-51.8-15.154-64.97-37.5a273.238,273.238,0,0,0-79.966,31.382c7.163,25.536,1.04,54.029-19.023,74.138-20.583,20.614-50.04,26.527-76.041,18.413A274.33,274.33,0,0,0,0,202.457a75.582,75.582,0,0,1,41.417,67.25A75.582,75.582,0,0,1,0,336.958a274.061,274.061,0,0,0,33.282,78.523c26-8.131,55.441-2.218,76.041,18.413,20.063,20.11,26.186,48.6,19.023,74.138a273.24,273.24,0,0,0,79.966,31.382c13.168-22.344,37.19-37.5,64.97-37.5a75.465,75.465,0,0,1,63.477,34.726,274.288,274.288,0,0,0,79.664-34.961,75.483,75.483,0,0,1,86.207-88.838,274.568,274.568,0,0,0,33.349-82.37,75.543,75.543,0,0,1-30.832-60.766" fill="none"/>
          <path id="Fill_1-3" data-name="Fill 1" d="M505.146,269.707a75.543,75.543,0,0,1,30.832-60.766,274.132,274.132,0,0,0-33.349-82.37,75.483,75.483,0,0,1-86.207-88.838A274.485,274.485,0,0,0,336.758,2.772,75.465,75.465,0,0,1,273.282,37.5c-27.779,0-51.8-15.154-64.97-37.5a273.238,273.238,0,0,0-79.966,31.382c7.163,25.536,1.04,54.029-19.023,74.138-20.583,20.614-50.04,26.527-76.041,18.413A274.33,274.33,0,0,0,0,202.457a75.582,75.582,0,0,1,41.417,67.25A75.582,75.582,0,0,1,0,336.958a274.061,274.061,0,0,0,33.282,78.523c26-8.131,55.441-2.218,76.041,18.413,20.063,20.11,26.186,48.6,19.023,74.138a273.24,273.24,0,0,0,79.966,31.382c13.168-22.344,37.19-37.5,64.97-37.5a75.465,75.465,0,0,1,63.477,34.726,274.288,274.288,0,0,0,79.664-34.961,75.483,75.483,0,0,1,86.207-88.838,274.568,274.568,0,0,0,33.349-82.37,75.543,75.543,0,0,1-30.832-60.766" fill="#dccafa" stroke="#fff" stroke-miterlimit="10" stroke-width="1.272" style="mix-blend-mode: multiply;isolation: isolate"/>
          <path id="Fill_1-4" data-name="Fill 1" d="M505.146,269.707a75.543,75.543,0,0,1,30.832-60.766,274.132,274.132,0,0,0-33.349-82.37,75.483,75.483,0,0,1-86.207-88.838A274.485,274.485,0,0,0,336.758,2.772,75.465,75.465,0,0,1,273.282,37.5c-27.779,0-51.8-15.154-64.97-37.5a273.238,273.238,0,0,0-79.966,31.382c7.163,25.536,1.04,54.029-19.023,74.138-20.583,20.614-50.04,26.527-76.041,18.413A274.33,274.33,0,0,0,0,202.457a75.582,75.582,0,0,1,41.417,67.25A75.582,75.582,0,0,1,0,336.958a274.061,274.061,0,0,0,33.282,78.523c26-8.131,55.441-2.218,76.041,18.413,20.063,20.11,26.186,48.6,19.023,74.138a273.24,273.24,0,0,0,79.966,31.382c13.168-22.344,37.19-37.5,64.97-37.5a75.465,75.465,0,0,1,63.477,34.726,274.288,274.288,0,0,0,79.664-34.961,75.483,75.483,0,0,1,86.207-88.838,274.568,274.568,0,0,0,33.349-82.37,75.543,75.543,0,0,1-30.832-60.766" fill="none" stroke="#fff" stroke-miterlimit="10" stroke-width="5" opacity="0.371"/>
        </g>
        <g transform="matrix(1, 0, 0, 1, -2.91, -2.83)" filter="url(#Fill_4)">
          <path id="Fill_4-2" data-name="Fill 4" d="M162.8,83.6c0,46.173-36.438,83.6-81.4,83.6S0,129.773,0,83.6,36.438,0,81.4,0s81.4,37.427,81.4,83.6" transform="translate(192.1 190.24)" fill="#fff"/>
        </g>
      </g>
    </g>
  </g>
</svg>
